<mxfile host="app.diagrams.net" agent="Mozilla/5.0 (Macintosh; Intel Mac OS X 10_15_7) AppleWebKit/537.36 (KHTML, like Gecko) Chrome/132.0.0.0 Safari/537.36" version="26.0.11">
  <diagram name="Page-1" id="orEiLuPRSYQBvGmdVXDn">
    <mxGraphModel dx="1693" dy="545" grid="1" gridSize="10" guides="1" tooltips="1" connect="1" arrows="1" fold="1" page="1" pageScale="1" pageWidth="827" pageHeight="1169" math="0" shadow="0">
      <root>
        <mxCell id="0" />
        <mxCell id="1" parent="0" />
        <mxCell id="4816XCKMGbu1FVl6_bT--13" value="" style="rounded=0;whiteSpace=wrap;html=1;movable=0;resizable=0;rotatable=0;deletable=0;editable=0;locked=1;connectable=0;" vertex="1" parent="1">
          <mxGeometry x="-490" y="80" width="400" height="960" as="geometry" />
        </mxCell>
        <mxCell id="4816XCKMGbu1FVl6_bT--14" value="APPLY FOR JOBS" style="ellipse;whiteSpace=wrap;html=1;fontFamily=Times New Roman;fontStyle=3;fillColor=#dae8fc;strokeColor=#6c8ebf;" vertex="1" parent="1">
          <mxGeometry x="-374.75" y="100" width="196.5" height="80" as="geometry" />
        </mxCell>
        <mxCell id="4816XCKMGbu1FVl6_bT--15" value="SEARCH FOR JOBS" style="ellipse;whiteSpace=wrap;html=1;fontFamily=Times New Roman;fontSize=12;fontStyle=3;fillColor=#dae8fc;strokeColor=#6c8ebf;" vertex="1" parent="1">
          <mxGeometry x="-370" y="190" width="191.75" height="80" as="geometry" />
        </mxCell>
        <mxCell id="4816XCKMGbu1FVl6_bT--16" value="RECEIVE NOTIFICATIONS" style="ellipse;whiteSpace=wrap;html=1;fontFamily=Times New Roman;fontStyle=3;fillColor=#dae8fc;strokeColor=#6c8ebf;" vertex="1" parent="1">
          <mxGeometry x="-374.75" y="280" width="196.5" height="80" as="geometry" />
        </mxCell>
        <mxCell id="4816XCKMGbu1FVl6_bT--17" value="REGISTER/LOGIN" style="ellipse;whiteSpace=wrap;html=1;fontFamily=Times New Roman;fontStyle=3;fillColor=#dae8fc;strokeColor=#6c8ebf;" vertex="1" parent="1">
          <mxGeometry x="-374.75" y="370" width="196.5" height="80" as="geometry" />
        </mxCell>
        <mxCell id="4816XCKMGbu1FVl6_bT--18" value="MANAGE PROFILE" style="ellipse;whiteSpace=wrap;html=1;fontStyle=3;fontFamily=Times New Roman;fillColor=#dae8fc;strokeColor=#6c8ebf;" vertex="1" parent="1">
          <mxGeometry x="-374.75" y="460" width="196.5" height="80" as="geometry" />
        </mxCell>
        <mxCell id="4816XCKMGbu1FVl6_bT--19" value="POST JOBS" style="ellipse;whiteSpace=wrap;html=1;fontFamily=Times New Roman;fontStyle=3;fillColor=#dae8fc;strokeColor=#6c8ebf;" vertex="1" parent="1">
          <mxGeometry x="-374.75" y="550" width="196.5" height="80" as="geometry" />
        </mxCell>
        <mxCell id="4816XCKMGbu1FVl6_bT--20" value="VIEW APPLICATION" style="ellipse;whiteSpace=wrap;html=1;fontFamily=Times New Roman;fontStyle=3;fillColor=#dae8fc;strokeColor=#6c8ebf;" vertex="1" parent="1">
          <mxGeometry x="-374.75" y="640" width="196.5" height="80" as="geometry" />
        </mxCell>
        <mxCell id="4816XCKMGbu1FVl6_bT--21" value="GENERATE REPORTS" style="ellipse;whiteSpace=wrap;html=1;fontFamily=Times New Roman;fontStyle=3;fillColor=#dae8fc;strokeColor=#6c8ebf;" vertex="1" parent="1">
          <mxGeometry x="-374.75" y="730" width="196.5" height="80" as="geometry" />
        </mxCell>
        <mxCell id="4816XCKMGbu1FVl6_bT--22" value="REMOVE FRAUDULENT POST" style="ellipse;whiteSpace=wrap;html=1;fontStyle=3;fontFamily=Times New Roman;fillColor=#dae8fc;strokeColor=#6c8ebf;" vertex="1" parent="1">
          <mxGeometry x="-374.75" y="820" width="196.5" height="80" as="geometry" />
        </mxCell>
        <mxCell id="4816XCKMGbu1FVl6_bT--23" value="REVIEW JOB POST" style="ellipse;whiteSpace=wrap;html=1;fontFamily=Times New Roman;fontStyle=3;fillColor=#dae8fc;strokeColor=#6c8ebf;" vertex="1" parent="1">
          <mxGeometry x="-374.75" y="910" width="196.5" height="80" as="geometry" />
        </mxCell>
        <mxCell id="4816XCKMGbu1FVl6_bT--26" style="edgeStyle=orthogonalEdgeStyle;rounded=0;orthogonalLoop=1;jettySize=auto;html=1;exitX=0.5;exitY=1;exitDx=0;exitDy=0;" edge="1" parent="1" source="4816XCKMGbu1FVl6_bT--13" target="4816XCKMGbu1FVl6_bT--13">
          <mxGeometry relative="1" as="geometry" />
        </mxCell>
        <object label="Job Seeker" id="4816XCKMGbu1FVl6_bT--27">
          <mxCell style="shape=umlActor;verticalLabelPosition=bottom;verticalAlign=top;html=1;outlineConnect=0;fontFamily=Times New Roman;fontStyle=0;fillColor=#dae8fc;strokeColor=#6c8ebf;" vertex="1" parent="1">
            <mxGeometry x="-660" y="150" width="70" height="90" as="geometry" />
          </mxCell>
        </object>
        <mxCell id="4816XCKMGbu1FVl6_bT--34" value="" style="curved=1;endArrow=classic;html=1;rounded=0;entryX=0;entryY=0.5;entryDx=0;entryDy=0;" edge="1" parent="1" source="4816XCKMGbu1FVl6_bT--27" target="4816XCKMGbu1FVl6_bT--14">
          <mxGeometry width="50" height="50" relative="1" as="geometry">
            <mxPoint x="-580" y="190" as="sourcePoint" />
            <mxPoint x="-530" y="140" as="targetPoint" />
            <Array as="points">
              <mxPoint x="-530" y="190" />
              <mxPoint x="-550" y="160" />
              <mxPoint x="-580" y="140" />
            </Array>
          </mxGeometry>
        </mxCell>
        <mxCell id="4816XCKMGbu1FVl6_bT--35" value="" style="curved=1;endArrow=classic;html=1;rounded=0;entryX=0;entryY=0.5;entryDx=0;entryDy=0;" edge="1" parent="1" source="4816XCKMGbu1FVl6_bT--27" target="4816XCKMGbu1FVl6_bT--15">
          <mxGeometry width="50" height="50" relative="1" as="geometry">
            <mxPoint x="-520" y="255" as="sourcePoint" />
            <mxPoint x="-470" y="205" as="targetPoint" />
            <Array as="points">
              <mxPoint x="-520" y="205" />
              <mxPoint x="-420" y="225" />
            </Array>
          </mxGeometry>
        </mxCell>
        <mxCell id="4816XCKMGbu1FVl6_bT--36" value="" style="curved=1;endArrow=classic;html=1;rounded=0;entryX=0;entryY=0.5;entryDx=0;entryDy=0;" edge="1" parent="1" source="4816XCKMGbu1FVl6_bT--27" target="4816XCKMGbu1FVl6_bT--16">
          <mxGeometry width="50" height="50" relative="1" as="geometry">
            <mxPoint x="-530" y="300" as="sourcePoint" />
            <mxPoint x="-480" y="250" as="targetPoint" />
            <Array as="points">
              <mxPoint x="-560" y="230" />
              <mxPoint x="-500" y="240" />
            </Array>
          </mxGeometry>
        </mxCell>
        <mxCell id="4816XCKMGbu1FVl6_bT--40" value="" style="curved=1;endArrow=classic;html=1;rounded=0;entryX=0;entryY=0;entryDx=0;entryDy=0;" edge="1" parent="1" target="4816XCKMGbu1FVl6_bT--17">
          <mxGeometry width="50" height="50" relative="1" as="geometry">
            <mxPoint x="-580" y="230" as="sourcePoint" />
            <mxPoint x="-400" y="330" as="targetPoint" />
            <Array as="points">
              <mxPoint x="-410" y="350" />
            </Array>
          </mxGeometry>
        </mxCell>
        <mxCell id="4816XCKMGbu1FVl6_bT--43" value="" style="endArrow=classic;html=1;rounded=0;entryX=0.033;entryY=0.335;entryDx=0;entryDy=0;entryPerimeter=0;" edge="1" parent="1" source="4816XCKMGbu1FVl6_bT--27" target="4816XCKMGbu1FVl6_bT--18">
          <mxGeometry width="50" height="50" relative="1" as="geometry">
            <mxPoint x="-450" y="380" as="sourcePoint" />
            <mxPoint x="-400" y="330" as="targetPoint" />
          </mxGeometry>
        </mxCell>
        <mxCell id="4816XCKMGbu1FVl6_bT--45" value="Employer" style="shape=umlActor;verticalLabelPosition=bottom;verticalAlign=top;html=1;outlineConnect=0;fontFamily=Times New Roman;fillColor=#dae8fc;strokeColor=#6c8ebf;" vertex="1" parent="1">
          <mxGeometry x="-660" y="390" width="70" height="90" as="geometry" />
        </mxCell>
        <mxCell id="4816XCKMGbu1FVl6_bT--47" value="" style="endArrow=classic;html=1;rounded=0;exitX=1;exitY=0.3333333333333333;exitDx=0;exitDy=0;exitPerimeter=0;entryX=0;entryY=0.5;entryDx=0;entryDy=0;" edge="1" parent="1" source="4816XCKMGbu1FVl6_bT--45" target="4816XCKMGbu1FVl6_bT--17">
          <mxGeometry width="50" height="50" relative="1" as="geometry">
            <mxPoint x="-450" y="440" as="sourcePoint" />
            <mxPoint x="-400" y="390" as="targetPoint" />
          </mxGeometry>
        </mxCell>
        <mxCell id="4816XCKMGbu1FVl6_bT--48" value="" style="endArrow=classic;html=1;rounded=0;entryX=0;entryY=0.5;entryDx=0;entryDy=0;" edge="1" parent="1" source="4816XCKMGbu1FVl6_bT--45" target="4816XCKMGbu1FVl6_bT--18">
          <mxGeometry width="50" height="50" relative="1" as="geometry">
            <mxPoint x="-580" y="400" as="sourcePoint" />
            <mxPoint x="-400" y="390" as="targetPoint" />
          </mxGeometry>
        </mxCell>
        <mxCell id="4816XCKMGbu1FVl6_bT--50" value="" style="endArrow=classic;html=1;rounded=0;exitX=1;exitY=1;exitDx=0;exitDy=0;exitPerimeter=0;entryX=0.033;entryY=0.342;entryDx=0;entryDy=0;entryPerimeter=0;" edge="1" parent="1" source="4816XCKMGbu1FVl6_bT--45" target="4816XCKMGbu1FVl6_bT--19">
          <mxGeometry width="50" height="50" relative="1" as="geometry">
            <mxPoint x="-450" y="720" as="sourcePoint" />
            <mxPoint x="-370" y="590" as="targetPoint" />
          </mxGeometry>
        </mxCell>
        <mxCell id="4816XCKMGbu1FVl6_bT--52" value="" style="endArrow=classic;html=1;rounded=0;entryX=0;entryY=0.5;entryDx=0;entryDy=0;" edge="1" parent="1" target="4816XCKMGbu1FVl6_bT--20">
          <mxGeometry width="50" height="50" relative="1" as="geometry">
            <mxPoint x="-600" y="484.6357342657343" as="sourcePoint" />
            <mxPoint x="-384.75000000000045" y="695.37" as="targetPoint" />
          </mxGeometry>
        </mxCell>
        <mxCell id="4816XCKMGbu1FVl6_bT--53" value="Admin" style="shape=umlActor;verticalLabelPosition=bottom;verticalAlign=top;html=1;outlineConnect=0;fontFamily=Times New Roman;fillColor=#dae8fc;strokeColor=#6c8ebf;" vertex="1" parent="1">
          <mxGeometry x="-660" y="690" width="80" height="120" as="geometry" />
        </mxCell>
        <mxCell id="4816XCKMGbu1FVl6_bT--55" value="" style="curved=1;endArrow=classic;html=1;rounded=0;entryX=0;entryY=0.5;entryDx=0;entryDy=0;exitX=1;exitY=0.3333333333333333;exitDx=0;exitDy=0;exitPerimeter=0;" edge="1" parent="1" source="4816XCKMGbu1FVl6_bT--53" target="4816XCKMGbu1FVl6_bT--21">
          <mxGeometry width="50" height="50" relative="1" as="geometry">
            <mxPoint x="-550" y="810" as="sourcePoint" />
            <mxPoint x="-500" y="760" as="targetPoint" />
            <Array as="points">
              <mxPoint x="-480" y="700" />
              <mxPoint x="-410" y="720" />
            </Array>
          </mxGeometry>
        </mxCell>
        <mxCell id="4816XCKMGbu1FVl6_bT--57" value="" style="endArrow=classic;html=1;rounded=0;entryX=0;entryY=0.5;entryDx=0;entryDy=0;" edge="1" parent="1" source="4816XCKMGbu1FVl6_bT--53" target="4816XCKMGbu1FVl6_bT--22">
          <mxGeometry width="50" height="50" relative="1" as="geometry">
            <mxPoint x="-450" y="1020" as="sourcePoint" />
            <mxPoint x="-400" y="970" as="targetPoint" />
          </mxGeometry>
        </mxCell>
        <mxCell id="4816XCKMGbu1FVl6_bT--58" value="" style="endArrow=classic;html=1;rounded=0;exitX=1;exitY=1;exitDx=0;exitDy=0;exitPerimeter=0;entryX=0;entryY=0.5;entryDx=0;entryDy=0;" edge="1" parent="1" source="4816XCKMGbu1FVl6_bT--53" target="4816XCKMGbu1FVl6_bT--23">
          <mxGeometry width="50" height="50" relative="1" as="geometry">
            <mxPoint x="-450" y="1020" as="sourcePoint" />
            <mxPoint x="-400" y="970" as="targetPoint" />
          </mxGeometry>
        </mxCell>
      </root>
    </mxGraphModel>
  </diagram>
</mxfile>
